<?xml version="1.0" encoding="UTF-8"?>
<!DOCTYPE svg PUBLIC "-//W3C//DTD SVG 1.1//EN" "http://www.w3.org/Graphics/SVG/1.1/DTD/svg11.dtd">
<svg xmlns="http://www.w3.org/2000/svg" version="1.1" width="500px" height="500px" style="shape-rendering:geometricPrecision; text-rendering:geometricPrecision; image-rendering:optimizeQuality; fill-rule:evenodd; clip-rule:evenodd" xmlns:xlink="http://www.w3.org/1999/xlink">
<g><path style="opacity:1" fill="#fefdf8" d="M -0.5,-0.5 C 166.167,-0.5 332.833,-0.5 499.5,-0.5C 499.5,166.167 499.5,332.833 499.5,499.5C 332.833,499.5 166.167,499.5 -0.5,499.5C -0.5,332.833 -0.5,166.167 -0.5,-0.5 Z"/></g>
<g><path style="opacity:1" fill="#192c26" d="M 233.5,120.5 C 286.274,117.801 326.774,138.468 355,182.5C 361.343,193.852 366.01,205.852 369,218.5C 370.888,224.785 369.222,229.785 364,233.5C 363.137,230.731 362.637,227.898 362.5,225C 364.22,219.633 364.72,214.133 364,208.5C 362.208,204.872 359.375,202.539 355.5,201.5C 336.896,159.745 304.896,135.578 259.5,129C 249.833,128.333 240.167,128.333 230.5,129C 221.509,131.397 212.509,133.397 203.5,135C 202.284,133.406 200.951,131.906 199.5,130.5C 200.665,129.416 201.998,128.583 203.5,128C 213.557,125.101 223.557,122.601 233.5,120.5 Z"/></g>
<g><path style="opacity:1" fill="#192c26" d="M 183.5,132.5 C 194.261,131.756 200.428,136.756 202,147.5C 202.667,154.833 202.667,162.167 202,169.5C 195.984,199.564 189.651,229.564 183,259.5C 180.257,275.109 177.924,290.776 176,306.5C 174.846,308.957 173.512,308.957 172,306.5C 174.536,267.815 181.203,229.815 192,192.5C 195.639,178.035 197.305,163.368 197,148.5C 195.71,138.778 190.544,135.611 181.5,139C 159.226,153.95 144.726,174.45 138,200.5C 136.067,210.582 137.733,219.916 143,228.5C 146.866,232.017 151.366,234.35 156.5,235.5C 157.731,236.651 157.731,237.817 156.5,239C 153.634,240.457 150.634,240.79 147.5,240C 138.899,235.736 133.732,228.903 132,219.5C 130.45,208.127 131.784,197.127 136,186.5C 143.871,168.933 155.038,153.766 169.5,141C 173.832,137.477 178.499,134.644 183.5,132.5 Z"/></g>
<g><path style="opacity:1" fill="#33443e" d="M 173.5,153.5 C 175.668,150.5 178.334,148 181.5,146C 183.402,144.699 185.402,144.032 187.5,144C 182.934,147.414 178.268,150.58 173.5,153.5 Z"/></g>
<g><path style="opacity:1" fill="#5c6a64" d="M 173.5,153.5 C 172.121,156.073 170.121,157.573 167.5,158C 169.114,155.873 171.114,154.373 173.5,153.5 Z"/></g>
<g><path style="opacity:1" fill="#192c26" d="M 260.5,207.5 C 265.162,206.804 269.329,207.804 273,210.5C 274.009,212.025 274.509,213.692 274.5,215.5C 271.356,215.044 268.356,214.044 265.5,212.5C 264.062,212.719 262.729,213.219 261.5,214C 255.41,220.338 252.243,227.838 252,236.5C 255.585,230.998 258.919,225.331 262,219.5C 263.415,216.782 265.415,216.115 268,217.5C 267.898,223.845 269.232,229.845 272,235.5C 275.28,237.891 278.78,238.058 282.5,236C 290.511,229.651 296.678,221.818 301,212.5C 306.525,206.808 312.525,206.142 319,210.5C 320.009,212.025 320.509,213.692 320.5,215.5C 317.978,215.872 315.978,215.039 314.5,213C 312.833,212.333 311.167,212.333 309.5,213C 302.026,219.117 298.192,226.95 298,236.5C 301.585,230.998 304.919,225.331 308,219.5C 310.034,216.141 312.368,215.808 315,218.5C 315.333,222.5 315.667,226.5 316,230.5C 317.915,237.353 322.081,239.186 328.5,236C 331.295,234.207 333.795,232.04 336,229.5C 338.509,221.648 342.675,214.815 348.5,209C 353.954,206.045 357.287,207.545 358.5,213.5C 357.718,219.786 355.884,220.12 353,214.5C 346.639,221.272 344.305,229.272 346,238.5C 347.829,244.158 351.663,245.992 357.5,244C 363.124,242.044 367.957,238.877 372,234.5C 374.833,231 377.667,227.5 380.5,224C 382.237,223.388 383.237,224.054 383.5,226C 377.712,236.456 369.378,244.123 358.5,249C 347,251.496 339.834,246.996 337,235.5C 324.138,246.808 314.971,244.474 309.5,228.5C 306.291,233.752 302.958,238.918 299.5,244C 292.8,245.301 289.967,242.468 291,235.5C 286.065,241.22 279.898,243.386 272.5,242C 267.391,238.959 264.391,234.459 263.5,228.5C 260.347,233.464 257.181,238.464 254,243.5C 250.748,245.097 247.915,244.597 245.5,242C 244.593,238.042 244.26,234.209 244.5,230.5C 237.246,234.92 230.412,239.92 224,245.5C 226.468,261.096 221.968,274.262 210.5,285C 199.026,289.873 194.193,286.04 196,273.5C 197.556,268.72 199.889,264.387 203,260.5C 206.847,255.989 210.68,251.489 214.5,247C 214.138,245.775 213.638,244.609 213,243.5C 208.81,240.066 204.81,236.4 201,232.5C 197.742,224.836 199.576,218.669 206.5,214C 209.014,212.748 211.68,212.248 214.5,212.5C 214.5,214.167 214.5,215.833 214.5,217.5C 208.6,218.893 206.1,222.56 207,228.5C 211.989,232.489 216.655,236.822 221,241.5C 229.557,235.135 238.39,229.135 247.5,223.5C 250.905,217.323 255.238,211.99 260.5,207.5 Z"/></g>
<g><path style="opacity:1" fill="#192c26" d="M 124.5,219.5 C 126.276,223.734 128.109,228.067 130,232.5C 127.512,277.844 144.179,314.177 180,341.5C 179.874,344.098 178.874,346.431 177,348.5C 133.825,316.178 116.325,273.178 124.5,219.5 Z"/></g>
<g><path style="opacity:1" fill="#182b25" d="M 369.5,249.5 C 370.765,250.514 371.431,252.014 371.5,254C 367.721,293.413 349.887,324.579 318,347.5C 316.38,345.759 314.88,343.925 313.5,342C 343.39,320.064 360.223,290.564 364,253.5C 366.167,252.512 368,251.179 369.5,249.5 Z"/></g>
<g><path style="opacity:1" fill="#f1f1ec" d="M 215.5,252.5 C 216.765,253.514 217.431,255.014 217.5,257C 216.554,267.227 212.22,275.56 204.5,282C 203.5,282.667 202.5,282.667 201.5,282C 200.39,279.263 200.223,276.429 201,273.5C 204.856,265.775 209.69,258.775 215.5,252.5 Z"/></g>
<g><path style="opacity:1" fill="#253731" d="M 304.5,342.5 C 305.496,342.414 306.329,342.748 307,343.5C 308.413,346.661 310.08,349.661 312,352.5C 312.667,353.5 312.667,354.5 312,355.5C 308.971,351.438 306.471,347.105 304.5,342.5 Z"/></g>
<g><path style="opacity:1" fill="#293b35" d="M 190.5,344.5 C 191.5,344.5 192.5,344.5 193.5,344.5C 193.345,349.895 192.678,355.228 191.5,360.5C 191.268,356.396 189.268,353.729 185.5,352.5C 184.167,353.5 182.833,354.5 181.5,355.5C 181.167,355.167 180.833,354.833 180.5,354.5C 184.161,351.506 187.494,348.173 190.5,344.5 Z"/></g>
<g><path style="opacity:1" fill="#e3e4df" d="M 190.5,347.5 C 191.451,348.919 191.784,350.585 191.5,352.5C 186.604,351.713 186.271,350.046 190.5,347.5 Z"/></g>
<g><path style="opacity:1" fill="#283a34" d="M 214.5,353.5 C 215.496,353.414 216.329,353.748 217,354.5C 218.53,358.09 219.864,361.757 221,365.5C 222.314,362.599 223.48,359.599 224.5,356.5C 225.438,361.526 224.438,366.192 221.5,370.5C 219.383,366.323 217.549,361.99 216,357.5C 214.73,361.142 213.564,364.808 212.5,368.5C 212.167,367.833 211.833,367.167 211.5,366.5C 212.661,362.189 213.661,357.855 214.5,353.5 Z"/></g>
<g><path style="opacity:1" fill="#2a3b35" d="M 287.5,350.5 C 288.812,352.743 289.478,355.41 289.5,358.5C 289.167,361.167 288.833,363.833 288.5,366.5C 285.454,363.615 282.954,360.282 281,356.5C 280.501,360.486 280.334,364.486 280.5,368.5C 279.325,368.719 278.325,368.386 277.5,367.5C 275.292,363.583 272.959,359.75 270.5,356C 271.996,355.493 273.163,355.993 274,357.5C 275.08,359.996 276.414,362.33 278,364.5C 278.499,360.848 278.665,357.182 278.5,353.5C 279.822,353.33 280.989,353.663 282,354.5C 283.667,357.167 285.333,359.833 287,362.5C 287.499,358.514 287.666,354.514 287.5,350.5 Z"/></g>
<g><path style="opacity:1" fill="#8b948f" d="M 254.5,359.5 C 246.852,358.307 244.852,358.307 248.5,359.5C 248.334,363.846 248.501,368.179 249,372.5C 249.175,367.981 249.675,363.647 250.5,359.5C 250.5,364.167 250.5,368.833 250.5,373.5C 249.5,373.5 248.5,373.5 247.5,373.5C 247.5,369.167 247.5,364.833 247.5,360.5C 245.833,360.5 244.167,360.5 242.5,360.5C 242.5,359.5 242.5,358.5 242.5,357.5C 246.884,357.174 251.217,357.508 255.5,358.5C 255.376,359.107 255.043,359.44 254.5,359.5 Z"/></g>
<g><path style="opacity:1" fill="#12261f" d="M 254.5,359.5 C 253.167,359.5 251.833,359.5 250.5,359.5C 249.675,363.647 249.175,367.981 249,372.5C 248.501,368.179 248.334,363.846 248.5,359.5C 244.852,358.307 246.852,358.307 254.5,359.5 Z"/></g>
</svg>
