<?xml version="1.0" encoding="UTF-8"?>
<!DOCTYPE svg PUBLIC "-//W3C//DTD SVG 1.1//EN" "http://www.w3.org/Graphics/SVG/1.1/DTD/svg11.dtd">
<svg xmlns="http://www.w3.org/2000/svg" version="1.1" width="500px" height="500px" style="shape-rendering:geometricPrecision; text-rendering:geometricPrecision; image-rendering:optimizeQuality; fill-rule:evenodd; clip-rule:evenodd" xmlns:xlink="http://www.w3.org/1999/xlink">
<g><path style="opacity:1" fill="#122620" d="M -0.5,-0.5 C 166.167,-0.5 332.833,-0.5 499.5,-0.5C 499.5,166.167 499.5,332.833 499.5,499.5C 332.833,499.5 166.167,499.5 -0.5,499.5C -0.5,332.833 -0.5,166.167 -0.5,-0.5 Z"/></g>
<g><path style="opacity:1" fill="#f4f4ef" d="M 233.5,120.5 C 295.487,118.221 338.987,145.221 364,201.5C 367.031,209.997 369.031,218.663 370,227.5C 368,229.5 366,231.5 364,233.5C 363.667,233.167 363.333,232.833 363,232.5C 362.704,229.294 362.204,226.128 361.5,223C 364.804,217.79 365.304,212.29 363,206.5C 361.155,203.817 358.655,202.15 355.5,201.5C 330.617,149.04 288.95,124.873 230.5,129C 221.625,130.808 212.958,133.308 204.5,136.5C 203.185,134.684 201.685,133.017 200,131.5C 199.312,130.668 199.479,130.002 200.5,129.5C 211.4,125.596 222.4,122.596 233.5,120.5 Z"/></g>
<g><path style="opacity:1" fill="#f2f2ed" d="M 183.5,132.5 C 193.351,131.509 199.517,135.842 202,145.5C 203.309,161.72 201.976,177.72 198,193.5C 188.488,230.726 181.155,268.393 176,306.5C 174.667,309.167 173.333,309.167 172,306.5C 173.413,290.855 175.08,275.188 177,259.5C 182.858,229.736 189.191,200.069 196,170.5C 197.827,162.133 197.827,153.8 196,145.5C 194.562,141.225 191.729,138.559 187.5,137.5C 183.132,138.517 179.132,140.35 175.5,143C 154.951,158.599 142.451,179.099 138,204.5C 135.019,220.567 141.185,230.9 156.5,235.5C 157.731,236.651 157.731,237.817 156.5,239C 153.634,240.457 150.634,240.79 147.5,240C 139.681,236.536 134.514,230.703 132,222.5C 130.39,210.137 131.724,198.137 136,186.5C 145.748,162.933 161.581,144.933 183.5,132.5 Z"/></g>
<g><path style="opacity:1" fill="#d5d8d3" d="M 169.5,157.5 C 169.167,157.5 168.833,157.5 168.5,157.5C 173.642,151.531 179.809,146.864 187,143.5C 187.5,143.667 188,143.833 188.5,144C 181.786,148.018 175.453,152.518 169.5,157.5 Z"/></g>
<g><path style="opacity:1" fill="#6f7c76" d="M 168.5,157.5 C 168.833,157.5 169.167,157.5 169.5,157.5C 168.438,159.757 166.772,160.923 164.5,161C 165.705,159.624 167.038,158.458 168.5,157.5 Z"/></g>
<g><path style="opacity:1" fill="#f3f3ee" d="M 260.5,207.5 C 263.518,207.335 266.518,207.502 269.5,208C 273.954,210.004 274.954,212.837 272.5,216.5C 269.298,212.442 265.631,211.775 261.5,214.5C 255.287,220.586 252.12,227.92 252,236.5C 255.833,230 259.667,223.5 263.5,217C 265.112,216.28 266.612,216.446 268,217.5C 267.774,224.131 269.274,230.297 272.5,236C 276.334,238.037 280.001,237.704 283.5,235C 289.86,229.98 294.693,223.813 298,216.5C 301.832,209.501 307.665,206.667 315.5,208C 319.007,209.33 320.673,211.83 320.5,215.5C 316.971,214.069 313.305,213.236 309.5,213C 302.026,219.117 298.192,226.95 298,236.5C 301.585,230.998 304.919,225.331 308,219.5C 310.034,216.141 312.368,215.808 315,218.5C 315.248,223.563 315.915,228.563 317,233.5C 320.033,237.774 323.867,238.607 328.5,236C 330.759,234.285 332.926,232.452 335,230.5C 337.598,222.136 342.098,214.969 348.5,209C 354.289,205.946 357.623,207.613 358.5,214C 357.537,219.806 355.704,219.973 353,214.5C 346.639,221.272 344.305,229.272 346,238.5C 347.829,244.158 351.663,245.992 357.5,244C 359.949,243.275 362.283,242.275 364.5,241C 370.144,235.688 375.477,230.021 380.5,224C 382.237,223.388 383.237,224.054 383.5,226C 377.712,236.456 369.378,244.123 358.5,249C 346.726,251.899 339.559,247.399 337,235.5C 329.476,243.821 321.476,244.488 313,237.5C 311.4,234.666 310.234,231.666 309.5,228.5C 306.291,233.752 302.958,238.918 299.5,244C 293.477,245.324 290.311,242.824 290,236.5C 277.167,246.669 268.167,244.003 263,228.5C 260.252,233.666 257.252,238.666 254,243.5C 251.599,244.602 249.099,244.769 246.5,244C 245.874,243.25 245.374,242.416 245,241.5C 244.633,237.565 244.467,233.899 244.5,230.5C 237.246,234.92 230.412,239.92 224,245.5C 226.19,259.597 222.69,272.097 213.5,283C 200.384,291.545 194.55,288.045 196,272.5C 197.746,268.673 199.746,265.007 202,261.5C 206.18,256.655 210.347,251.822 214.5,247C 214.138,245.775 213.638,244.609 213,243.5C 208.81,240.066 204.81,236.4 201,232.5C 197.605,224.127 199.772,217.627 207.5,213C 209.81,212.503 212.143,212.337 214.5,212.5C 214.66,214.199 214.494,215.866 214,217.5C 208.326,219.153 205.993,222.82 207,228.5C 211.967,232.466 216.634,236.799 221,241.5C 230.035,234.963 239.202,228.63 248.5,222.5C 251.329,216.478 255.329,211.478 260.5,207.5 Z"/></g>
<g><path style="opacity:1" fill="#f3f3ee" d="M 124.5,217.5 C 126.021,222.19 127.855,226.856 130,231.5C 127.206,277.232 143.873,313.899 180,341.5C 180.062,344.161 179.062,346.495 177,348.5C 136.426,318.511 118.426,278.177 123,227.5C 123.61,224.173 124.11,220.839 124.5,217.5 Z"/></g>
<g><path style="opacity:1" fill="#f5f5f0" d="M 369.5,249.5 C 370.765,250.514 371.431,252.014 371.5,254C 367.675,292.659 350.341,323.659 319.5,347C 318.833,347.667 318.167,347.667 317.5,347C 316.044,345.255 314.711,343.422 313.5,341.5C 343.5,319.845 360.334,290.512 364,253.5C 366.167,252.512 368,251.179 369.5,249.5 Z"/></g>
<g><path style="opacity:1" fill="#172b25" d="M 215.5,253.5 C 216.473,255.948 216.806,258.615 216.5,261.5C 215.006,269.331 211.339,275.831 205.5,281C 203.866,281.494 202.199,281.66 200.5,281.5C 200.127,276.452 201.294,271.785 204,267.5C 207.32,262.353 211.153,257.686 215.5,253.5 Z"/></g>
<g><path style="opacity:1" fill="#6e7a74" d="M 215.5,253.5 C 215.56,252.957 215.893,252.624 216.5,252.5C 217.803,255.645 217.803,258.645 216.5,261.5C 216.806,258.615 216.473,255.948 215.5,253.5 Z"/></g>
<g><path style="opacity:1" fill="#e0e1dc" d="M 190.5,344.5 C 191.833,344.5 193.167,344.5 194.5,344.5C 193.717,349.866 192.717,355.2 191.5,360.5C 191.268,356.396 189.268,353.729 185.5,352.5C 184.167,353.5 182.833,354.5 181.5,355.5C 181.167,355.167 180.833,354.833 180.5,354.5C 184.161,351.506 187.494,348.173 190.5,344.5 Z"/></g>
<g><path style="opacity:1" fill="#e1e3de" d="M 304.5,342.5 C 305.496,342.414 306.329,342.748 307,343.5C 307.748,345.332 308.748,346.999 310,348.5C 311.59,350.65 312.257,352.983 312,355.5C 308.845,351.52 306.345,347.186 304.5,342.5 Z"/></g>
<g><path style="opacity:1" fill="#23362f" d="M 190.5,347.5 C 191.451,348.919 191.784,350.585 191.5,352.5C 189.654,352.778 188.32,352.111 187.5,350.5C 188.77,349.712 189.77,348.712 190.5,347.5 Z"/></g>
<g><path style="opacity:1" fill="#909994" d="M 242.5,358.5 C 246.683,357.189 251.016,357.189 255.5,358.5C 255.376,359.107 255.043,359.44 254.5,359.5C 250.702,358.517 246.702,358.183 242.5,358.5 Z"/></g>
<g><path style="opacity:1" fill="#fcfbf6" d="M 242.5,359.5 C 242.5,359.167 242.5,358.833 242.5,358.5C 246.702,358.183 250.702,358.517 254.5,359.5C 253.167,359.5 251.833,359.5 250.5,359.5C 249.675,363.647 249.175,367.981 249,372.5C 248.501,368.179 248.334,363.846 248.5,359.5C 246.5,359.5 244.5,359.5 242.5,359.5 Z"/></g>
<g><path style="opacity:1" fill="#828c87" d="M 242.5,359.5 C 244.5,359.5 246.5,359.5 248.5,359.5C 248.334,363.846 248.501,368.179 249,372.5C 249.175,367.981 249.675,363.647 250.5,359.5C 250.5,364.167 250.5,368.833 250.5,373.5C 249.5,373.5 248.5,373.5 247.5,373.5C 247.5,369.167 247.5,364.833 247.5,360.5C 245.585,360.784 243.919,360.451 242.5,359.5 Z"/></g>
<g><path style="opacity:1" fill="#dbddd8" d="M 286.5,350.5 C 287.5,350.5 288.5,350.5 289.5,350.5C 289.5,355.833 289.5,361.167 289.5,366.5C 285.911,364.057 283.078,360.724 281,356.5C 280.501,360.486 280.334,364.486 280.5,368.5C 279.325,368.719 278.325,368.386 277.5,367.5C 275.292,363.583 272.959,359.75 270.5,356C 271.635,355.251 272.635,355.417 273.5,356.5C 278.096,366.917 279.763,365.917 278.5,353.5C 279.822,353.33 280.989,353.663 282,354.5C 283.667,357.167 285.333,359.833 287,362.5C 286.842,358.541 286.675,354.541 286.5,350.5 Z"/></g>
<g><path style="opacity:1" fill="#dfe1dc" d="M 214.5,353.5 C 215.496,353.414 216.329,353.748 217,354.5C 218.53,358.09 219.864,361.757 221,365.5C 222.453,362.702 223.453,359.702 224,356.5C 225.156,355.007 225.99,355.174 226.5,357C 225.666,361.855 223.999,366.355 221.5,370.5C 219.383,366.323 217.549,361.99 216,357.5C 214.68,361.114 213.513,364.781 212.5,368.5C 211.698,363.353 212.365,358.353 214.5,353.5 Z"/></g>
</svg>
